PathFileType	4	(X/Y/Z)	 control3min.trc
DataRate	CameraRate	NumFrames	NumMarkers	Units	OrigDataRate	OrigDataStartFrame	OrigNumFrames
200	200	8	43	m	200	1	1000
Frame#	Time	C7			LSH			RSH			MAN			RASI			LASI			HIPR			HIPL			RPSI			LPSI			COX			RTHI1			RTHI2			RTHI3			RTHI4			RLKN			RMKN			RSHA1			RSHA2			RSHA3			RSHA4			RLMAL			RMMAL			RHEEL			RMET5			RMET1			RTOE			LTHI1			LTHI2			LTHI3			LTHI4			LLKN			LMKN			LSHA1			LSHA2			LSHA3			LSHA4			LLMAL			LMMAL			LHEEL			LMET5			LMET1			LTOE			
		X1	Y1	Z1	X2	Y2	Z2	X3	Y3	Z3	X4	Y4	Z4	X5	Y5	Z5	X6	Y6	Z6	X7	Y7	Z7	X8	Y8	Z8	X9	Y9	Z9	X10	Y10	Z10	X11	Y11	Z11	X12	Y12	Z12	X13	Y13	Z13	X14	Y14	Z14	X15	Y15	Z15	X16	Y16	Z16	X17	Y17	Z17	X18	Y18	Z18	X19	Y19	Z19	X20	Y20	Z20	X21	Y21	Z21	X22	Y22	Z22	X23	Y23	Z23	X24	Y24	Z24	X25	Y25	Z25	X26	Y26	Z26	X27	Y27	Z27	X28	Y28	Z28	X29	Y29	Z29	X30	Y30	Z30	X31	Y31	Z31	X32	Y32	Z32	X33	Y33	Z33	X34	Y34	Z34	X35	Y35	Z35	X36	Y36	Z36	X37	Y37	Z37	X38	Y38	Z38	X39	Y39	Z39	X40	Y40	Z40	X41	Y41	Z41	X42	Y42	Z42	X43	Y43	Z43	
1	0.0050	-0.288796	1.449869	-0.508346	-0.213726	1.449968	-0.677666	-0.193538	1.428330	-0.366548	-0.157643	1.397457	-0.523695	-0.134448	0.961083	-0.422131	-0.153188	0.967607	-0.663256	-0.179771	1.021399	-0.398437	-0.199753	1.035669	-0.680261	-0.299392	1.003213	-0.500442	-0.307978	1.002322	-0.564648	-0.307882	0.998478	-0.533333	-0.226881	0.774892	-0.367483	-0.209624	0.717632	-0.367577	-0.146855	0.732311	-0.368040	-0.155874	0.793312	-0.367602	-0.202990	0.529888	-0.387959	-0.195657	0.515139	-0.511578	-0.299660	0.381186	-0.387941	-0.300858	0.340051	-0.397698	-0.250816	0.327909	-0.378056	-0.241062	0.370409	-0.372545	-0.286911	0.185545	-0.405354	-0.265074	0.187871	-0.480232	-0.337707	0.185162	-0.441950	-0.211834	0.082170	-0.393117	-0.181419	0.086390	-0.456957	-0.160170	0.073493	-0.455904	-0.257407	0.789644	-0.710241	-0.238306	0.731037	-0.713750	-0.175370	0.745946	-0.721228	-0.187327	0.804924	-0.719362	-0.219424	0.514859	-0.694259	-0.194672	0.519132	-0.577854	-0.323024	0.349840	-0.671627	-0.329973	0.310993	-0.658841	-0.274368	0.299169	-0.684758	-0.273987	0.342004	-0.692994	-0.315164	0.192292	-0.660171	-0.292677	0.192652	-0.585770	-0.360269	0.204269	-0.607078	-0.259953	0.086077	-0.669487	-0.224758	0.084826	-0.607898	-0.207644	0.070546	-0.610833	
2	0.0100	-0.288491	1.447469	-0.508308	-0.213205	1.447378	-0.677660	-0.193562	1.425466	-0.366365	-0.158186	1.394907	-0.523749	-0.134792	0.958891	-0.421800	-0.153178	0.965320	-0.662991	-0.180480	1.018946	-0.398314	-0.199969	1.033149	-0.680141	-0.299769	1.000186	-0.500531	-0.308080	0.999211	-0.564806	-0.308196	0.995466	-0.533428	-0.226588	0.772333	-0.367357	-0.209089	0.715117	-0.367362	-0.146375	0.730042	-0.367557	-0.155639	0.791042	-0.367174	-0.201882	0.527537	-0.387688	-0.194835	0.512907	-0.511404	-0.298714	0.378874	-0.388310	-0.300348	0.338103	-0.397561	-0.250441	0.325814	-0.377882	-0.240502	0.368299	-0.372225	-0.287014	0.183509	-0.405213	-0.265406	0.185970	-0.480207	-0.338047	0.183309	-0.441661	-0.211995	0.080399	-0.393393	-0.181758	0.084854	-0.457369	-0.160452	0.071974	-0.456379	-0.256885	0.787016	-0.710529	-0.237602	0.728548	-0.713929	-0.174671	0.743586	-0.721141	-0.186773	0.802490	-0.719365	-0.218486	0.512659	-0.694524	-0.193972	0.516942	-0.577949	-0.322659	0.347730	-0.671852	-0.329717	0.309087	-0.659206	-0.274086	0.296999	-0.684958	-0.273548	0.339913	-0.693334	-0.315216	0.190238	-0.660372	-0.292833	0.190641	-0.585957	-0.360439	0.202135	-0.607348	-0.259799	0.084226	-0.669358	-0.224651	0.083219	-0.607765	-0.207475	0.069140	-0.610765	
3	0.0150	-0.288178	1.444750	-0.508262	-0.212753	1.444542	-0.677616	-0.193592	1.422367	-0.366216	-0.158201	1.392108	-0.523657	-0.135136	0.956412	-0.421467	-0.153153	0.962748	-0.662727	-0.181138	1.016247	-0.398170	-0.200174	1.030398	-0.679985	-0.300088	0.996927	-0.500621	-0.308064	0.995789	-0.565008	-0.308507	0.992219	-0.533494	-0.226272	0.769535	-0.367220	-0.208546	0.712376	-0.367138	-0.145883	0.727526	-0.367042	-0.155371	0.788511	-0.366735	-0.200794	0.524949	-0.387413	-0.193887	0.510398	-0.511179	-0.297901	0.376495	-0.388270	-0.299741	0.335813	-0.397515	-0.250059	0.323450	-0.377745	-0.239918	0.365937	-0.371950	-0.287131	0.181263	-0.405056	-0.265779	0.183784	-0.480126	-0.338376	0.181216	-0.441365	-0.212244	0.078190	-0.393693	-0.182262	0.082786	-0.457809	-0.160919	0.069984	-0.456901	-0.256367	0.784166	-0.710769	-0.236935	0.725795	-0.714054	-0.173992	0.740938	-0.721089	-0.186206	0.799805	-0.719422	-0.217605	0.510145	-0.694734	-0.193370	0.514393	-0.578049	-0.322370	0.345386	-0.672213	-0.329463	0.306845	-0.659565	-0.273805	0.294545	-0.685197	-0.273144	0.337497	-0.693634	-0.315213	0.187903	-0.660618	-0.292855	0.188340	-0.586206	-0.360519	0.199711	-0.607619	-0.259606	0.082026	-0.669367	-0.224448	0.081282	-0.607796	-0.207202	0.067245	-0.610640	
4	0.0200	-0.287875	1.441963	-0.508218	-0.212303	1.441632	-0.677566	-0.193617	1.419205	-0.366077	-0.158221	1.389219	-0.523570	-0.135488	0.953848	-0.421148	-0.153124	0.960098	-0.662464	-0.181783	1.013480	-0.398025	-0.200374	1.027564	-0.679828	-0.300406	0.993609	-0.500704	-0.308076	0.992328	-0.565189	-0.308812	0.988912	-0.533552	-0.225954	0.766666	-0.367080	-0.208007	0.709570	-0.366909	-0.145394	0.724940	-0.366527	-0.155108	0.785909	-0.366295	-0.199700	0.522287	-0.387136	-0.192906	0.507806	-0.510939	-0.297094	0.374042	-0.388228	-0.299178	0.333476	-0.397434	-0.249677	0.321000	-0.377598	-0.239320	0.363478	-0.371683	-0.287272	0.178940	-0.404913	-0.266158	0.181525	-0.480048	-0.338709	0.179058	-0.441079	-0.212539	0.075872	-0.393983	-0.182789	0.080590	-0.458225	-0.161419	0.067839	-0.457388	-0.255849	0.781259	-0.710995	-0.236281	0.722966	-0.714167	-0.173330	0.738212	-0.721035	-0.185648	0.797049	-0.719475	-0.216727	0.507546	-0.694952	-0.192775	0.511741	-0.578156	-0.322066	0.342955	-0.672562	-0.329202	0.304511	-0.659917	-0.273522	0.292013	-0.685434	-0.272741	0.334995	-0.693931	-0.315197	0.185489	-0.660873	-0.292865	0.185948	-0.586463	-0.360573	0.197201	-0.607882	-0.259398	0.079762	-0.669421	-0.224218	0.079240	-0.607853	-0.206912	0.065302	-0.610633	
5	0.0250	-0.287597	1.438958	-0.508191	-0.211887	1.438510	-0.677495	-0.193636	1.415850	-0.365966	-0.158023	1.386098	-0.523427	-0.135841	0.951045	-0.420835	-0.153085	0.957209	-0.662203	-0.182386	1.010504	-0.397870	-0.200559	1.024510	-0.679657	-0.300698	0.990106	-0.500784	-0.308073	0.988678	-0.565362	-0.309104	0.985417	-0.533596	-0.225628	0.763590	-0.366933	-0.207470	0.706566	-0.366671	-0.144907	0.722148	-0.366004	-0.154838	0.783095	-0.365857	-0.198611	0.519410	-0.386856	-0.191826	0.504975	-0.510660	-0.296351	0.371452	-0.388007	-0.298645	0.330911	-0.397352	-0.249296	0.318321	-0.377454	-0.238701	0.360782	-0.371434	-0.287448	0.176414	-0.404782	-0.266546	0.179045	-0.479968	-0.339036	0.176700	-0.440803	-0.212945	0.073234	-0.394289	-0.183402	0.078061	-0.458634	-0.162034	0.065354	-0.457882	-0.255337	0.778164	-0.711176	-0.235661	0.719918	-0.714240	-0.172700	0.735250	-0.721001	-0.185098	0.794071	-0.719544	-0.215880	0.504683	-0.695153	-0.192235	0.508791	-0.578272	-0.321774	0.340306	-0.672952	-0.328929	0.301905	-0.660260	-0.273233	0.289248	-0.685695	-0.272352	0.332228	-0.694213	-0.315140	0.182838	-0.661161	-0.292802	0.183300	-0.586771	-0.360557	0.194451	-0.608150	-0.259153	0.077223	-0.669564	-0.223948	0.076944	-0.608028	-0.206586	0.063044	-0.610733	
6	0.0300	-0.287359	1.435782	-0.508175	-0.211464	1.435184	-0.677404	-0.193635	1.412328	-0.365872	-0.157846	1.382745	-0.523297	-0.136187	0.948015	-0.420539	-0.153034	0.954102	-0.661939	-0.182952	1.007337	-0.397703	-0.200730	1.021232	-0.679480	-0.300991	0.986440	-0.500830	-0.308161	0.984930	-0.565467	-0.309380	0.981761	-0.533613	-0.225303	0.760327	-0.366779	-0.206943	0.703373	-0.366422	-0.144429	0.719163	-0.365493	-0.154569	0.780085	-0.365428	-0.197503	0.516317	-0.386572	-0.190667	0.501920	-0.510335	-0.295611	0.368669	-0.387766	-0.298147	0.328190	-0.397123	-0.248864	0.315436	-0.377287	-0.238073	0.357863	-0.371173	-0.287670	0.173690	-0.404668	-0.266941	0.176367	-0.479904	-0.339369	0.174170	-0.440574	-0.213503	0.070239	-0.394580	-0.184099	0.075135	-0.458987	-0.162761	0.062473	-0.458355	-0.254838	0.774897	-0.711310	-0.235076	0.716666	-0.714276	-0.172108	0.732077	-0.720959	-0.184576	0.790892	-0.719581	-0.215046	0.501576	-0.695348	-0.191697	0.505570	-0.578401	-0.321436	0.337420	-0.673309	-0.328631	0.299056	-0.660592	-0.272931	0.286263	-0.685965	-0.271965	0.329230	-0.694491	-0.315052	0.179965	-0.661477	-0.292713	0.180415	-0.587106	-0.360480	0.191461	-0.608417	-0.258858	0.074451	-0.669790	-0.223638	0.074369	-0.608305	-0.206207	0.060522	-0.610951	
7	0.0350	-0.287156	1.432389	-0.508187	-0.211047	1.431620	-0.677305	-0.193616	1.408601	-0.365805	-0.157644	1.379127	-0.523172	-0.136534	0.944725	-0.420260	-0.152975	0.950738	-0.661680	-0.183476	1.003945	-0.397529	-0.200878	1.017707	-0.679306	-0.301268	0.982589	-0.500866	-0.308272	0.981018	-0.565536	-0.309632	0.977915	-0.533624	-0.224989	0.756834	-0.366616	-0.206434	0.699958	-0.366164	-0.143972	0.715949	-0.365007	-0.154319	0.776845	-0.365021	-0.196382	0.512974	-0.386285	-0.189421	0.498608	-0.509984	-0.294892	0.365654	-0.387473	-0.297693	0.325253	-0.396841	-0.248452	0.312272	-0.377118	-0.237422	0.354661	-0.370912	-0.287955	0.170721	-0.404596	-0.267348	0.173447	-0.479854	-0.339709	0.171453	-0.440404	-0.214224	0.066888	-0.394855	-0.184886	0.071875	-0.459334	-0.163599	0.059185	-0.458803	-0.254353	0.771418	-0.711392	-0.234529	0.713185	-0.714282	-0.171560	0.728664	-0.720932	-0.184078	0.787475	-0.719606	-0.214223	0.498196	-0.695554	-0.191172	0.502040	-0.578548	-0.321063	0.334267	-0.673656	-0.328296	0.295923	-0.660915	-0.272615	0.283017	-0.686248	-0.271568	0.325972	-0.694770	-0.314925	0.176840	-0.661824	-0.292594	0.177246	-0.587471	-0.360343	0.188211	-0.608697	-0.258527	0.071412	-0.670098	-0.223289	0.071515	-0.608667	-0.205820	0.057728	-0.611350	
8	0.0400	-0.286987	1.428780	-0.508228	-0.210619	1.427818	-0.677206	-0.193575	1.404668	-0.365764	-0.157472	1.375239	-0.523070	-0.136856	0.941187	-0.419980	-0.152910	0.947117	-0.661429	-0.183957	1.000323	-0.397349	-0.200997	1.013937	-0.679133	-0.301528	0.978558	-0.500890	-0.308405	0.976954	-0.565567	-0.309855	0.973887	-0.533630	-0.224696	0.753113	-0.366450	-0.205948	0.696311	-0.365906	-0.143541	0.712507	-0.364563	-0.154087	0.773375	-0.364650	-0.195237	0.509367	-0.385993	-0.188109	0.495027	-0.509611	-0.294176	0.362385	-0.387180	-0.297300	0.322094	-0.396519	-0.248073	0.308824	-0.376939	-0.236754	0.351169	-0.370672	-0.288289	0.167504	-0.404560	-0.267760	0.170276	-0.479820	-0.340058	0.168549	-0.440292	-0.215124	0.063166	-0.395112	-0.185789	0.068198	-0.459626	-0.164561	0.055461	-0.459178	-0.253888	0.767727	-0.711420	-0.234021	0.709479	-0.714265	-0.171053	0.725015	-0.720915	-0.183607	0.783820	-0.719614	-0.213395	0.494543	-0.695777	-0.190644	0.498206	-0.578714	-0.320632	0.330856	-0.673974	-0.327911	0.292515	-0.661228	-0.272259	0.279517	-0.686557	-0.271141	0.322458	-0.695070	-0.314759	0.173461	-0.662200	-0.292447	0.173796	-0.587870	-0.360149	0.184702	-0.608989	-0.258172	0.068152	-0.670480	-0.222914	0.068341	-0.609108	-0.205426	0.054613	-0.611861	
